<svg fill="none" height="20" viewBox="0 0 20 20" width="20" xmlns="http://www.w3.org/2000/svg">
    <path
      d="M8.75518 2.75154C9.14949 2.58821 9.57211 2.50415 9.9989 2.50415C10.4257 2.50415 10.8483 2.58821 11.2426 2.75154C11.6369 2.91487 11.9952 3.15426 12.297 3.45605C12.5988 3.75784 12.8382 4.11612 13.0015 4.51043C13.0674 4.66954 13.1204 4.83327 13.1602 5.00001H16.5001C16.9143 5.00001 17.2501 5.3358 17.2501 5.75001C17.2501 6.16423 16.9143 6.50001 16.5001 6.50001H15.9359L15.2528 14.1803C15.2092 14.6705 15.1727 15.0813 15.1161 15.4165C15.0569 15.7674 14.9674 16.0941 14.787 16.3997C14.5086 16.8711 14.096 17.2488 13.6017 17.4842C13.2813 17.6369 12.948 17.6971 12.5932 17.725C12.2543 17.7516 11.8419 17.7516 11.3498 17.7516H8.64825C8.15608 17.7516 7.74366 17.7516 7.4047 17.725C7.04993 17.6971 6.71659 17.6369 6.39616 17.4842C5.90193 17.2487 5.48923 16.8711 5.21091 16.3996C5.03047 16.094 4.94096 15.7673 4.88178 15.4164C4.82525 15.0811 4.78874 14.6703 4.74518 14.18L4.0626 6.50001H3.50146C3.08725 6.50001 2.75146 6.16423 2.75146 5.75001C2.75146 5.3358 3.08725 5.00001 3.50146 5.00001H3.92928H6.83761C6.87739 4.83327 6.93039 4.66954 6.99629 4.51043C7.15962 4.11612 7.39901 3.75784 7.7008 3.45605C8.00259 3.15426 8.36087 2.91487 8.75518 2.75154ZM7.44624 6.50233L5.56858 6.50079L6.23674 14.0185C6.28353 14.545 6.31533 14.8967 6.3609 15.1669C6.40493 15.4281 6.45321 15.5534 6.50262 15.6371C6.62913 15.8514 6.81672 16.023 7.04137 16.1301C7.1291 16.1719 7.2582 16.2089 7.5222 16.2296C7.79541 16.2511 8.14859 16.2516 8.67712 16.2516H11.3209C11.8494 16.2516 12.2026 16.2511 12.4758 16.2296C12.7397 16.2089 12.8688 16.1719 12.9566 16.1301C13.1812 16.023 13.3688 15.8514 13.4953 15.6371C13.5447 15.5534 13.593 15.4281 13.637 15.167C13.6826 14.8968 13.7144 14.5451 13.7613 14.0187L14.4293 6.50804L7.55032 6.50242C7.53333 6.50357 7.51618 6.50415 7.4989 6.50415C7.4812 6.50415 7.46364 6.50354 7.44624 6.50233ZM11.5781 5.00001C11.4925 4.82088 11.377 4.6574 11.2363 4.51671C11.0738 4.35421 10.8809 4.22531 10.6686 4.13736C10.4563 4.04942 10.2287 4.00415 9.9989 4.00415C9.76909 4.00415 9.54152 4.04942 9.32921 4.13736C9.11689 4.22531 8.92397 4.35421 8.76146 4.51671C8.62078 4.6574 8.50528 4.82088 8.41973 5.00001H11.5781ZM7.92431 7.9038C8.33647 7.8626 8.70399 8.16332 8.74519 8.57548L9.24519 13.5772C9.2864 13.9893 8.98567 14.3569 8.57352 14.3981C8.16136 14.4393 7.79383 14.1385 7.75263 13.7264L7.25263 8.72468C7.21143 8.31252 7.51215 7.945 7.92431 7.9038ZM12.0735 7.9038C12.4857 7.945 12.7864 8.31252 12.7452 8.72468L12.2452 13.7264C12.204 14.1385 11.8365 14.4393 11.4243 14.3981C11.0122 14.3569 10.7114 13.9893 10.7526 13.5772L11.2526 8.57548C11.2938 8.16332 11.6614 7.8626 12.0735 7.9038Z"
      fill="#353C4E"/>
</svg>
